<svg width="1003" height="1003" viewBox="0 0 1003 1003" fill="none" xmlns="http://www.w3.org/2000/svg">
<path d="M902.501 799.379H836.059V799.88H902.501V799.379Z" fill="#EBEBEB"/>
<path d="M664.427 804.823H646.989V805.325H664.427V804.823Z" fill="#EBEBEB"/>
<path d="M834.051 780.751H795.552V781.253H834.051V780.751Z" fill="#EBEBEB"/>
<path d="M191.878 784.121H105.233V784.623H191.878V784.121Z" fill="#EBEBEB"/>
<path d="M222.443 784.121H209.739V784.623H222.443V784.121Z" fill="#EBEBEB"/>
<path d="M451.645 792.593H263.731V793.094H451.645V792.593Z" fill="#EBEBEB"/>
<path d="M478.232 677.627H90.8758C84.5629 677.627 79.4255 672.489 79.4255 666.177V121.684C79.4255 115.371 84.5629 110.234 90.8758 110.234H478.232C484.543 110.234 489.681 115.371 489.681 121.684V666.177C489.681 672.489 484.543 677.627 478.232 677.627ZM90.8758 110.737C84.8377 110.737 79.927 115.648 79.927 121.686V666.179C79.927 672.217 84.8377 677.127 90.8758 677.127H478.232C484.268 677.127 489.179 672.217 489.179 666.179V121.684C489.179 115.648 484.268 110.735 478.232 110.735L90.8758 110.737Z" fill="#EBEBEB"/>
<path d="M912.124 677.627H524.768C518.457 677.627 513.319 672.489 513.319 666.177V121.684C513.319 115.371 518.457 110.234 524.768 110.234H912.124C918.439 110.234 923.574 115.371 923.574 121.684V666.177C923.574 672.489 918.437 677.627 912.124 677.627ZM524.768 110.737C518.732 110.737 513.821 115.648 513.821 121.686V666.179C513.821 672.217 518.732 677.127 524.768 677.127H912.124C918.162 677.127 923.073 672.217 923.073 666.179V121.684C923.073 115.648 918.162 110.735 912.124 110.735L524.768 110.737Z" fill="#EBEBEB"/>
<path d="M1003 767.09H0V767.592H1003V767.09Z" fill="#EBEBEB"/>
<path d="M239.378 631.388C237.683 612.015 217.906 604.763 194.47 606.813C171.036 608.863 152.817 619.441 154.512 638.815L239.378 631.388Z" fill="#F0F0F0"/>
<path d="M193.695 597.958C204.572 597.008 208.044 587.82 207.091 576.944C206.141 566.067 201.126 557.622 190.249 558.575C179.373 559.526 175.9 568.713 176.853 579.59C177.804 590.466 182.819 598.911 193.695 597.958Z" fill="#F0F0F0"/>
<path d="M682.241 218.596C682.766 224.594 678.329 229.882 672.331 230.405C666.333 230.931 661.045 226.493 660.522 220.496C659.996 214.498 664.433 209.21 670.431 208.684C676.429 208.161 681.717 212.598 682.241 218.596Z" fill="#F5F5F5"/>
<path d="M742.567 213.318C743.093 219.316 738.655 224.604 732.658 225.127C726.66 225.653 721.372 221.216 720.846 215.218C720.321 209.22 724.758 203.932 730.756 203.406C736.756 202.883 742.042 207.32 742.567 213.318Z" fill="#F5F5F5"/>
<path d="M802.894 208.04C803.419 214.038 798.982 219.326 792.984 219.852C786.986 220.377 781.698 215.94 781.173 209.942C780.647 203.944 785.084 198.656 791.082 198.131C797.08 197.605 802.368 202.042 802.894 208.04Z" fill="#F5F5F5"/>
<path d="M687.621 280.086C688.146 286.084 683.709 291.371 677.711 291.897C671.713 292.423 666.426 287.985 665.9 281.987C665.374 275.99 669.812 270.702 675.81 270.178C681.81 269.651 687.097 274.086 687.621 280.086Z" fill="#F5F5F5"/>
<path d="M747.947 274.806C748.473 280.804 744.036 286.092 738.038 286.617C732.04 287.143 726.752 282.706 726.226 276.708C725.701 270.71 730.138 265.422 736.136 264.896C742.134 264.373 747.422 268.81 747.947 274.806Z" fill="#F5F5F5"/>
<path d="M808.274 269.528C808.799 275.526 804.362 280.814 798.364 281.337C792.366 281.863 787.078 277.426 786.553 271.428C786.027 265.43 790.464 260.142 796.462 259.616C802.46 259.095 807.748 263.532 808.274 269.528Z" fill="#F5F5F5"/>
<path d="M693.001 341.574C693.527 347.572 689.089 352.859 683.091 353.385C677.093 353.911 671.806 349.473 671.282 343.475C670.756 337.477 675.194 332.19 681.192 331.664C687.188 331.138 692.475 335.576 693.001 341.574Z" fill="#F5F5F5"/>
<path d="M753.327 336.296C753.853 342.294 749.416 347.582 743.418 348.107C737.42 348.633 732.132 344.195 731.606 338.198C731.081 332.2 735.518 326.912 741.516 326.388C747.514 325.861 752.802 330.298 753.327 336.296Z" fill="#F5F5F5"/>
<path d="M813.652 331.018C814.177 337.016 809.74 342.304 803.742 342.827C797.744 343.351 792.456 338.916 791.931 332.918C791.405 326.92 795.842 321.632 801.84 321.108C807.84 320.583 813.128 325.02 813.652 331.018Z" fill="#F5F5F5"/>
<path d="M802.518 572.926C802.109 571.744 801.052 570.867 799.804 570.785C794.119 570.404 789.317 568.278 785.516 564.46C780.559 559.483 777.644 551.909 777.173 542.916C777.084 541.241 775.68 539.935 774.003 539.925C772.146 539.913 770.665 541.482 770.766 543.335C771.337 553.883 774.904 562.904 780.966 568.992C785.702 573.748 791.81 576.534 798.771 577.142C798.892 577.152 799.048 577.166 799.229 577.18C801.538 577.363 803.277 575.112 802.518 572.926Z" fill="#F0F0F0"/>
<path d="M796.109 611.429C769.522 609.102 750.35 590.982 744.282 562.705C743.895 560.902 745.045 559.126 746.862 558.811C748.541 558.521 750.182 559.584 750.537 561.251C755.973 586.681 773.04 602.966 796.667 605.034C822.578 607.3 850.408 590.254 855.393 547.277C855.595 545.536 857.114 544.25 858.859 544.402C860.646 544.559 861.986 546.154 861.776 547.935C856.999 588.454 830.358 614.426 796.109 611.429Z" fill="#F0F0F0"/>
<path d="M745.951 534.523C744.164 534.366 742.824 532.772 743.035 530.99C747.813 490.469 774.456 464.499 808.703 467.494C838.711 470.12 858.943 492.585 862.095 526.427C862.261 528.214 860.875 529.771 859.084 529.877H859.078C857.33 529.981 855.856 528.661 855.689 526.92C852.797 496.431 834.791 476.22 808.141 473.889C782.23 471.623 754.401 488.668 749.416 531.646C749.215 533.389 747.696 534.675 745.951 534.523Z" fill="#F0F0F0"/>
<path d="M797.415 594.241C792.472 593.808 787.836 592.655 783.582 590.795C781.851 590.039 781.136 587.955 782.041 586.296C782.83 584.849 784.589 584.223 786.095 584.887C790.095 586.645 794.516 587.678 799.281 587.939C818.934 589.064 839.676 575.144 841.708 541.512C842.959 520.798 835.864 504.066 822.617 496.064C821.196 495.205 820.669 493.41 821.401 491.921C822.233 490.23 824.344 489.606 825.957 490.579C841.286 499.835 849.519 518.72 848.117 541.899C846.157 574.33 825.922 595.898 798.912 594.352C798.412 594.32 797.911 594.284 797.415 594.241Z" fill="#F0F0F0"/>
<path d="M768.832 574.234C767.279 575.295 765.157 574.799 764.214 573.17C758.527 563.333 755.867 550.649 756.691 537.026C758.567 506.003 777.167 484.918 802.424 484.503C804.298 484.473 805.812 486.04 805.706 487.911V487.919C805.61 489.586 804.252 490.898 802.583 490.93C783.853 491.299 765.034 505.458 763.102 537.413C762.352 549.819 764.725 561.267 769.813 570.021C770.647 571.459 770.206 573.295 768.832 574.234Z" fill="#F0F0F0"/>
<path d="M812.691 571.61C812.037 570.123 812.609 568.406 814.001 567.568C822.436 562.488 827.618 551.829 827.706 538.98C827.776 528.687 824.789 519.981 819.295 514.465C815.058 510.208 809.58 508.066 803.014 508.078C793.124 508.104 785.116 513.522 780.679 523.056C779.981 524.557 778.244 525.267 776.689 524.695C774.922 524.045 774.081 522.009 774.88 520.304C780.368 508.591 790.665 501.689 802.996 501.654C811.218 501.642 818.43 504.497 823.844 509.933C830.556 516.673 834.207 527.002 834.125 539.022C834.023 554.186 827.636 566.896 817.233 573.116C815.596 574.095 813.459 573.357 812.691 571.61Z" fill="#F0F0F0"/>
<path d="M789.58 548.025C787.756 548.757 785.716 547.698 785.249 545.788C785.036 544.92 784.86 544.025 784.721 543.104C782.906 531.101 789.359 520.647 799.732 518.794C805.086 517.833 809.86 519.093 813.509 522.35C814.99 523.674 814.875 526.035 813.261 527.193L813.06 527.335C811.844 528.206 810.242 528.009 809.108 527.034C806.932 525.167 804.167 524.521 800.861 525.113C792.956 526.527 789.951 534.751 791.07 542.144C791.178 542.864 791.315 543.562 791.479 544.232C791.861 545.807 791.082 547.419 789.58 548.025Z" fill="#F0F0F0"/>
<path d="M800.187 560.376C800.179 560.376 800.169 560.374 800.161 560.374C797.949 560.177 796.727 557.698 797.907 555.814L798.179 555.379C798.771 554.436 799.828 553.917 800.94 553.995C801.891 554.059 802.898 553.999 803.951 553.81C810.853 552.575 814.021 546.148 813.967 539.616C813.953 537.985 815.082 536.577 816.693 536.334C818.576 536.049 820.356 537.45 820.392 539.355C820.582 549.823 814.42 558.462 805.08 560.131C803.395 560.432 801.756 560.515 800.187 560.376Z" fill="#F0F0F0"/>
<path d="M801.614 548.525C798.196 548.226 795.648 545.923 794.723 542.635C794.188 540.729 795.786 538.884 797.756 539.056L798.493 539.121C799.636 539.221 800.579 540.003 800.96 541.086C801.146 541.616 801.503 542.069 802.171 542.128C803.714 542.262 803.985 540.049 804.025 539.604C804.053 539.287 804.119 538.057 803.594 537.333C803.078 536.623 802.725 535.811 802.801 534.936C803.052 532.081 806.659 530.934 808.478 533.149C809.925 534.91 810.667 537.375 810.422 540.164C809.963 545.413 806.258 548.932 801.614 548.525Z" fill="#F0F0F0"/>
<path d="M741.285 476.732C739.518 476.577 738.212 475.021 738.367 473.254L740.8 445.438L768.615 447.872C770.382 448.026 771.688 449.583 771.534 451.35C771.379 453.117 769.823 454.423 768.055 454.269L746.637 452.395L744.764 473.813C744.609 475.58 743.051 476.886 741.285 476.732Z" fill="#F0F0F0"/>
<path d="M873.537 488.303C871.77 488.148 870.464 486.591 870.618 484.824L872.492 463.406L851.074 461.532C849.306 461.378 848.001 459.821 848.155 458.054C848.309 456.287 849.866 454.981 851.633 455.135L879.449 457.569L877.015 485.384C876.861 487.151 875.304 488.457 873.537 488.303Z" fill="#F0F0F0"/>
<path d="M863.677 637.848L835.862 635.414C834.095 635.26 832.789 633.703 832.943 631.936C833.098 630.169 834.654 628.863 836.422 629.017L857.84 630.891L859.713 609.473C859.868 607.706 861.424 606.4 863.192 606.554C864.959 606.709 866.265 608.265 866.111 610.033L863.677 637.848Z" fill="#F0F0F0"/>
<path d="M752.842 628.151L725.027 625.718L727.46 597.902C727.614 596.135 729.171 594.829 730.938 594.984C732.706 595.138 734.012 596.695 733.857 598.462L731.983 619.88L753.402 621.754C755.169 621.908 756.475 623.465 756.32 625.232C756.166 626.999 754.609 628.305 752.842 628.151Z" fill="#F0F0F0"/>
<path d="M149.908 567.951C148.823 568.045 147.864 567.243 147.77 566.155L146.273 549.054L163.375 547.558C164.462 547.463 165.419 548.266 165.513 549.353C165.607 550.438 164.805 551.397 163.718 551.491L150.548 552.643L151.7 565.812C151.798 566.9 150.994 567.856 149.908 567.951Z" fill="#E0E0E0"/>
<path d="M231.224 560.837C230.138 560.932 229.179 560.129 229.085 559.042L227.934 545.873L214.764 547.024C213.679 547.118 212.72 546.316 212.626 545.229C212.532 544.144 213.334 543.185 214.421 543.09L231.522 541.594L233.019 558.695C233.113 559.784 232.311 560.743 231.224 560.837Z" fill="#E0E0E0"/>
<path d="M239.649 634.478L222.548 635.974C221.462 636.069 220.503 635.266 220.409 634.179C220.315 633.094 221.117 632.135 222.205 632.04L235.374 630.889L234.222 617.72C234.128 616.632 234.931 615.675 236.018 615.581C237.103 615.487 238.062 616.289 238.156 617.377L239.649 634.478Z" fill="#E0E0E0"/>
<path d="M171.501 640.44L154.4 641.936L152.903 624.833C152.809 623.748 153.611 622.789 154.699 622.694C155.784 622.6 156.743 623.403 156.837 624.49L157.988 637.659L171.158 636.508C172.243 636.414 173.202 637.216 173.296 638.303C173.391 639.386 172.586 640.343 171.501 640.44Z" fill="#E0E0E0"/>
<path d="M229.854 282.742L164.396 288.469L163.056 273.151C161.666 257.259 173.463 243.201 189.352 241.811C205.244 240.421 219.302 252.218 220.692 268.108L221.471 277.009L230.915 276.182L230.136 267.281C228.291 246.182 209.625 230.521 188.526 232.367C167.427 234.213 151.766 252.878 153.612 273.977L154.96 289.384C147.343 290.868 141.921 297.893 142.611 305.795L147.287 359.24C148.027 367.692 155.477 373.942 163.928 373.204L237.208 366.793C245.659 366.055 251.91 358.605 251.171 350.153L246.495 296.707C245.755 288.254 238.305 282.001 229.854 282.742ZM202.048 323.925L203.659 342.328C203.924 345.349 201.689 348.011 198.668 348.276C195.647 348.54 192.985 346.306 192.721 343.285L191.11 324.882C188.707 323.401 186.991 320.868 186.727 317.839C186.281 312.753 190.045 308.27 195.13 307.825C200.215 307.379 204.698 311.143 205.144 316.228C205.406 319.255 204.157 322.049 202.048 323.925Z" fill="#EBEBEB"/>
<path d="M341.913 313.724L335.295 302.936C331.71 303.432 328.777 303.432 325.193 302.936L318.575 313.724L317.305 313.387C313.04 312.254 308.926 310.545 305.078 308.312L303.941 307.652L306.747 295.941C306.974 294.992 307.927 294.409 308.876 294.635C309.825 294.862 310.408 295.815 310.18 296.764L307.989 305.899C310.848 307.456 313.853 308.703 316.95 309.622L323.413 299.083L324.583 299.273C328.33 299.885 332.153 299.885 335.901 299.273L337.07 299.083L343.533 309.622C346.631 308.701 349.636 307.456 352.494 305.899L349.618 293.893L350.581 293.203C353.204 291.317 355.543 289.089 357.551 286.567C358.147 285.817 359.208 285.64 359.985 286.2C360.791 286.78 360.98 287.923 360.364 288.702C358.39 291.193 356.123 293.424 353.6 295.357L356.546 307.652L355.411 308.312C351.563 310.545 347.449 312.254 343.184 313.387L341.913 313.724ZM301.351 290.172C300.796 289.536 300.258 288.882 299.742 288.21L287.446 291.155L286.786 290.019C284.553 286.172 282.844 282.058 281.711 277.793L281.374 276.523L292.162 269.905C291.913 268.108 291.793 266.447 291.793 264.854C291.793 263.263 291.915 261.6 292.162 259.803L281.374 253.187L281.711 251.917C282.844 247.653 284.553 243.538 286.786 239.691L287.446 238.556L299.74 241.5C301.801 238.812 304.198 236.417 306.886 234.355L304.655 225.051C304.428 224.104 305.012 223.153 305.957 222.927L305.963 222.925C306.91 222.698 307.861 223.282 308.087 224.227L310.864 235.817L309.893 236.515C306.812 238.734 304.11 241.436 301.893 244.517L301.201 245.478L289.195 242.602C287.64 245.46 286.395 248.465 285.474 251.562L296.009 258.024L295.819 259.193C295.482 261.261 295.317 263.113 295.317 264.852C295.317 266.595 295.482 268.445 295.819 270.511L296.009 271.679L285.472 278.144C286.391 281.243 287.638 284.246 289.193 287.105L301.199 284.228L301.891 285.189C302.543 286.096 303.243 286.976 303.981 287.821C304.595 288.523 304.579 289.572 303.907 290.22L303.843 290.282C303.137 290.97 302.001 290.914 301.351 290.172ZM373.04 291.157L368.506 290.072C367.557 289.845 366.974 288.892 367.2 287.943C367.427 286.996 368.38 286.411 369.329 286.637L371.286 287.107C372.841 284.248 374.087 281.243 375.008 278.146L364.47 271.681L364.661 270.513C364.998 268.447 365.162 266.595 365.162 264.854C365.162 263.113 364.998 261.263 364.661 259.195L364.47 258.026L375.006 251.564C374.087 248.465 372.839 245.462 371.284 242.604L359.279 245.48L358.586 244.519C356.37 241.438 353.668 238.736 350.587 236.517L349.616 235.819L352.492 223.813C349.634 222.259 346.629 221.011 343.531 220.09L337.068 230.628L335.899 230.439C332.149 229.831 328.326 229.831 324.577 230.439L323.409 230.628L316.946 220.092C316.545 220.211 316.144 220.337 315.742 220.467C314.848 220.76 313.885 220.279 313.562 219.396C313.221 218.467 313.704 217.42 314.643 217.113C315.524 216.825 316.412 216.562 317.297 216.327L318.569 215.988L325.187 226.778C328.787 226.279 331.686 226.279 335.287 226.778L341.905 215.988L343.176 216.325C347.441 217.46 351.555 219.17 355.403 221.4L356.538 222.06L353.592 234.357C356.28 236.419 358.677 238.814 360.737 241.502L373.032 238.558L373.692 239.693C375.924 243.54 377.633 247.655 378.767 251.919L379.104 253.189L368.316 259.805C368.564 261.602 368.685 263.265 368.685 264.856C368.685 266.449 368.562 268.11 368.316 269.907L379.104 276.525L378.767 277.795C377.633 282.06 375.924 286.174 373.692 290.021L373.04 291.157ZM329.748 282.044C320.785 281.791 313.311 274.32 313.054 265.358C312.796 256.325 319.546 248.78 328.258 247.775C329.311 247.653 330.244 248.477 330.244 249.538C330.244 250.429 329.58 251.177 328.695 251.278C321.012 252.148 315.241 259.414 316.85 267.606C317.895 272.926 322.182 277.213 327.503 278.252C336.236 279.959 343.911 273.287 343.911 264.854C343.911 262.032 343.04 259.3 341.437 257.011C340.932 256.289 341.068 255.302 341.73 254.718C342.522 254.018 343.758 254.164 344.362 255.033C346.358 257.901 347.441 261.322 347.441 264.854C347.437 274.501 339.455 282.316 329.748 282.044Z" fill="#F0F0F0"/>
<path d="M217.278 460.562L213.003 453.593C210.688 453.914 208.793 453.914 206.478 453.593L202.203 460.562L201.382 460.343C198.626 459.611 195.968 458.507 193.483 457.063L192.749 456.636L194.562 449.069C194.708 448.457 195.324 448.078 195.936 448.227C196.548 448.373 196.925 448.989 196.779 449.601L195.364 455.502C197.212 456.507 199.152 457.314 201.154 457.908L205.328 451.099L206.084 451.224C208.506 451.619 210.975 451.619 213.396 451.224L214.153 451.099L218.329 457.908C220.331 457.314 222.271 456.507 224.118 455.502L222.259 447.747L222.881 447.3C224.576 446.082 226.086 444.642 227.384 443.013C227.769 442.53 228.455 442.415 228.957 442.776C229.476 443.151 229.599 443.89 229.202 444.393C227.926 446.002 226.461 447.444 224.831 448.694L226.734 456.636L226 457.063C223.515 458.505 220.857 459.609 218.1 460.343L217.278 460.562ZM191.074 445.348C190.714 444.937 190.367 444.516 190.034 444.08L182.091 445.984L181.665 445.25C180.223 442.764 179.12 440.106 178.388 437.35L178.169 436.53L185.138 432.255C184.977 431.093 184.899 430.02 184.899 428.991C184.899 427.964 184.977 426.889 185.138 425.727L178.169 421.453L178.388 420.632C179.12 417.876 180.223 415.22 181.665 412.732L182.091 411.998L190.034 413.902C191.364 412.165 192.913 410.618 194.65 409.286L193.21 403.276C193.063 402.664 193.441 402.051 194.05 401.904L194.054 401.902C194.666 401.756 195.28 402.133 195.427 402.745L197.22 410.233L196.592 410.684C194.602 412.117 192.857 413.862 191.425 415.854L190.977 416.476L183.22 414.618C182.217 416.466 181.411 418.405 180.817 420.407L187.623 424.582L187.501 425.338C187.282 426.674 187.178 427.87 187.178 428.995C187.178 430.121 187.284 431.316 187.501 432.652L187.625 433.406L180.819 437.583C181.413 439.585 182.219 441.525 183.222 443.372L190.979 441.515L191.427 442.136C191.848 442.722 192.299 443.292 192.777 443.838C193.174 444.291 193.162 444.969 192.728 445.386L192.686 445.426C192.227 445.862 191.495 445.825 191.074 445.348ZM237.386 445.982L234.457 445.282C233.845 445.135 233.466 444.52 233.613 443.908C233.759 443.296 234.375 442.919 234.987 443.065L236.253 443.368C237.256 441.521 238.062 439.581 238.656 437.579L231.85 433.402L231.974 432.648C232.191 431.314 232.297 430.117 232.297 428.991C232.297 427.866 232.191 426.67 231.974 425.334L231.852 424.578L238.658 420.403C238.064 418.401 237.258 416.462 236.255 414.614L228.497 416.472L228.05 415.85C226.618 413.86 224.873 412.113 222.883 410.68L222.255 410.229L224.114 402.472C222.267 401.467 220.327 400.662 218.325 400.067L214.151 406.873L213.396 406.751C210.975 406.357 208.506 406.357 206.082 406.751L205.328 406.873L201.154 400.067C200.895 400.143 200.634 400.225 200.377 400.309C199.8 400.498 199.178 400.187 198.969 399.617C198.748 399.017 199.061 398.341 199.667 398.143C200.237 397.956 200.811 397.786 201.38 397.635L202.203 397.417L206.478 404.388C208.805 404.065 210.676 404.065 213.003 404.388L217.278 397.417L218.098 397.635C220.853 398.37 223.511 399.473 225.998 400.913L226.732 401.34L224.829 409.284C226.566 410.616 228.112 412.163 229.444 413.9L237.388 411.996L237.813 412.73C239.256 415.216 240.359 417.874 241.091 420.63L241.31 421.451L234.341 425.725C234.501 426.887 234.58 427.96 234.58 428.989C234.58 430.018 234.501 431.091 234.341 432.253L241.31 436.528L241.091 437.348C240.359 440.104 239.256 442.762 237.813 445.248L237.386 445.982ZM209.42 440.094C203.629 439.932 198.803 435.105 198.636 429.314C198.468 423.479 202.829 418.604 208.458 417.954C209.138 417.876 209.739 418.409 209.739 419.094C209.739 419.669 209.31 420.153 208.738 420.217C203.776 420.779 200.046 425.473 201.085 430.766C201.759 434.203 204.53 436.973 207.968 437.645C213.609 438.748 218.568 434.437 218.568 428.989C218.568 427.166 218.006 425.4 216.971 423.922C216.644 423.457 216.732 422.817 217.16 422.44C217.673 421.986 218.469 422.082 218.861 422.644C220.151 424.498 220.851 426.706 220.851 428.989C220.847 435.222 215.689 440.273 209.42 440.094Z" fill="#EBEBEB"/>
<path d="M501.5 856.594C716.306 856.594 890.441 846.425 890.441 833.88C890.441 821.336 716.306 811.166 501.5 811.166C286.694 811.166 112.559 821.336 112.559 833.88C112.559 846.425 286.694 856.594 501.5 856.594Z" fill="#F5F5F5"/>
<path d="M729.081 292.529H663.763L617.563 820.606H682.881C701.456 820.606 717.889 805.495 719.514 786.92L759.821 326.216C761.446 307.64 747.656 292.529 729.081 292.529Z" fill="#004880"/>
<path d="M715.753 292.529H494.694C476.118 292.529 459.685 307.64 458.06 326.216L417.754 786.92C416.129 805.495 429.918 820.606 448.494 820.606H669.553C688.128 820.606 704.561 805.495 706.186 786.92L746.493 326.216C748.118 307.64 734.328 292.529 715.753 292.529Z" fill="#21479D"/>
<path opacity="0.3" d="M714.753 292.529H493.694C475.118 292.529 458.685 307.64 457.06 326.216L416.754 786.92C415.129 805.495 428.918 820.606 447.494 820.606H668.553C687.128 820.606 703.561 805.495 705.186 786.92L745.493 326.216C747.118 307.64 733.328 292.529 714.753 292.529Z" fill="white"/>
<path opacity="0.7" d="M714.808 303.321H656.526C653.088 303.321 649.86 305.578 648.586 308.872C643.874 321.048 631.942 329.387 619.232 329.387H584.767C572.057 329.387 561.582 321.046 559 308.872C558.302 305.578 555.47 303.323 552.031 303.323H493.749C481.105 303.323 469.96 313.572 468.853 326.216L428.546 786.92C427.441 799.563 436.793 809.812 449.436 809.812H670.496C683.139 809.812 694.285 799.563 695.392 786.92L735.699 326.216C736.804 313.572 727.452 303.321 714.808 303.321Z" fill="white"/>
<path d="M659.739 553.572H505.029C500.441 553.572 497.049 549.853 497.45 545.267L498.224 536.414C498.625 531.827 502.67 528.11 507.257 528.11H661.968C666.556 528.11 669.948 531.829 669.547 536.414L668.772 545.267C668.371 549.853 664.327 553.572 659.739 553.572Z" fill="white"/>
<path d="M656.397 591.766H501.687C497.099 591.766 493.707 588.047 494.108 583.461L494.882 574.609C495.283 570.021 499.327 566.304 503.915 566.304H658.626C663.214 566.304 666.606 570.023 666.205 574.609L665.43 583.461C665.029 588.047 660.985 591.766 656.397 591.766Z" fill="white"/>
<path opacity="0.1" d="M612.733 311.951C612.287 317.038 607.804 321.161 602.717 321.161C597.63 321.161 593.868 317.038 594.314 311.951C594.759 306.864 599.242 302.742 604.33 302.742C609.415 302.742 613.178 306.864 612.733 311.951Z" fill="black"/>
<path opacity="0.1" d="M608.554 311.951C608.312 314.729 605.862 316.982 603.082 316.982C600.304 316.982 598.247 314.729 598.49 311.951C598.733 309.173 601.182 306.92 603.963 306.92C606.743 306.92 608.797 309.173 608.554 311.951Z" fill="black"/>
<g opacity="0.8">
<path d="M687.595 327.313C686.104 327.313 685.001 326.105 685.131 324.615L685.563 319.682C685.693 318.192 687.007 316.984 688.497 316.984C689.988 316.984 691.091 318.192 690.961 319.682L690.529 324.615C690.399 326.105 689.085 327.313 687.595 327.313Z" fill="black"/>
<path d="M709.183 327.313C707.693 327.313 706.59 326.105 706.72 324.615L707.733 313.038C707.863 311.548 709.177 310.34 710.668 310.34C712.158 310.34 713.261 311.548 713.131 313.038L712.118 324.615C711.988 326.105 710.674 327.313 709.183 327.313Z" fill="black"/>
<path d="M698.389 327.313C696.899 327.313 695.795 326.105 695.926 324.615L696.648 316.36C696.778 314.87 698.092 313.662 699.583 313.662C701.073 313.662 702.176 314.87 702.046 316.36L701.324 324.615C701.194 326.105 699.88 327.313 698.389 327.313Z" fill="black"/>
</g>
<g opacity="0.8">
<path d="M502.774 327.313H489.223C488.379 327.313 487.755 326.629 487.829 325.784L488.465 318.509C488.539 317.664 489.284 316.98 490.126 316.98H503.677C504.521 316.98 505.145 317.664 505.071 318.509L504.435 325.784C504.361 326.629 503.618 327.313 502.774 327.313Z" fill="black"/>
<path d="M509.057 325.339C508.212 325.339 507.588 324.655 507.662 323.811L507.953 320.483C508.028 319.638 508.772 318.954 509.614 318.954C510.459 318.954 511.083 319.638 511.008 320.483L510.718 323.811C510.645 324.655 509.901 325.339 509.057 325.339Z" fill="black"/>
</g>
<path d="M634.273 495.384C661.267 469.545 663.957 428.548 640.281 403.814C616.605 379.081 575.53 379.977 548.536 405.816C521.542 431.655 518.853 472.652 542.528 497.386C566.204 522.119 607.279 521.223 634.273 495.384Z" fill="white"/>
<g opacity="0.5">
<path d="M591.612 448.098C574.591 448.098 560.224 454.574 558.994 468.646L557.628 484.262H619.27L620.636 468.646C621.866 454.574 608.634 448.098 591.612 448.098Z" fill="black"/>
<path d="M592.175 441.667C600.075 441.667 603.718 435.264 604.408 427.364C605.1 419.465 602.576 413.061 594.677 413.061C586.777 413.061 583.134 419.465 582.442 427.364C581.752 435.264 584.276 441.667 592.175 441.667Z" fill="black"/>
</g>
<path d="M652.678 540.384C648.474 540.384 644.925 541.983 644.622 545.459L644.285 549.317H659.511L659.848 545.459C660.151 541.983 656.883 540.384 652.678 540.384Z" fill="black"/>
<path d="M652.817 538.796C654.769 538.796 655.667 537.213 655.838 535.263C656.008 533.311 655.386 531.73 653.435 531.73C651.483 531.73 650.584 533.313 650.414 535.263C650.243 537.215 650.867 538.796 652.817 538.796Z" fill="black"/>
<path d="M605.8 629.96H545.602C538.571 629.96 533.369 624.261 533.985 617.228C534.601 610.197 540.8 604.496 547.831 604.496H608.029C615.06 604.496 620.261 610.197 619.645 617.228C619.03 624.261 612.831 629.96 605.8 629.96Z" fill="black"/>
<path d="M653.697 575.991L653.892 573.76C654.092 571.479 652.399 569.626 650.119 569.626C647.838 569.626 645.822 571.481 645.623 573.76L645.428 575.991C644.518 575.991 643.715 576.729 643.637 577.64L643.118 583.569C643.037 584.48 643.711 585.218 644.622 585.218H652.887C653.798 585.218 654.6 584.48 654.68 583.569L655.2 577.64C655.28 576.729 654.608 575.991 653.697 575.991ZM650.03 570.645C651.747 570.645 653.021 572.041 652.873 573.758L652.678 575.989H646.45L646.644 573.758C646.795 572.041 648.313 570.645 650.03 570.645Z" fill="black"/>
<path d="M529.277 578.366L526.393 577.77C526.052 577.7 525.875 577.341 526.017 577.004L527.219 574.163C527.478 573.553 526.736 573.102 526.268 573.586L524.088 575.832C523.829 576.099 523.414 576.099 523.203 575.832L521.416 573.586C521.033 573.104 520.212 573.553 520.363 574.163L521.067 577.004C521.151 577.341 520.912 577.7 520.557 577.77L517.568 578.366C516.926 578.494 516.848 579.395 517.468 579.523L520.353 580.119C520.694 580.189 520.87 580.548 520.728 580.885L519.526 583.726C519.267 584.336 520.009 584.787 520.477 584.304L522.657 582.057C522.916 581.79 523.331 581.79 523.542 582.057L525.329 584.304C525.713 584.787 526.533 584.336 526.383 583.726L525.678 580.885C525.594 580.548 525.833 580.189 526.188 580.119L529.177 579.523C529.819 579.395 529.897 578.492 529.277 578.366Z" fill="#263238"/>
<path d="M548.26 578.366L545.375 577.77C545.034 577.7 544.858 577.341 545 577.004L546.202 574.163C546.461 573.553 545.718 573.102 545.251 573.586L543.07 575.832C542.812 576.099 542.398 576.099 542.186 575.832L540.398 573.586C540.015 573.104 539.195 573.553 539.345 574.163L540.049 577.004C540.134 577.341 539.893 577.7 539.54 577.77L536.551 578.366C535.909 578.494 535.831 579.395 536.449 579.523L539.333 580.119C539.674 580.189 539.851 580.548 539.708 580.885L538.507 583.726C538.248 584.336 538.99 584.787 539.458 584.304L541.638 582.057C541.897 581.79 542.31 581.79 542.523 582.057L544.31 584.304C544.693 584.787 545.514 584.336 545.363 583.726L544.659 580.885C544.575 580.548 544.816 580.189 545.169 580.119L548.158 579.523C548.802 579.395 548.88 578.492 548.26 578.366Z" fill="#263238"/>
<path d="M567.243 578.366L564.358 577.77C564.017 577.7 563.841 577.341 563.983 577.004L565.185 574.163C565.443 573.553 564.701 573.102 564.234 573.586L562.053 575.832C561.795 576.099 561.379 576.099 561.169 575.832L559.381 573.586C558.998 573.104 558.178 573.553 558.328 574.163L559.032 577.004C559.116 577.341 558.878 577.7 558.523 577.77L555.534 578.366C554.892 578.494 554.814 579.395 555.431 579.523L558.316 580.119C558.657 580.189 558.834 580.548 558.691 580.885L557.49 583.726C557.231 584.336 557.973 584.787 558.44 584.304L560.621 582.057C560.88 581.79 561.295 581.79 561.506 582.057L563.293 584.304C563.676 584.787 564.497 584.336 564.346 583.726L563.642 580.885C563.558 580.548 563.796 580.189 564.152 580.119L567.14 579.523C567.784 579.395 567.863 578.492 567.243 578.366Z" fill="#263238"/>
<path d="M586.227 578.366L583.343 577.77C583.002 577.7 582.825 577.341 582.968 577.004L584.169 574.163C584.428 573.553 583.686 573.102 583.218 573.586L581.038 575.832C580.779 576.099 580.364 576.099 580.153 575.832L578.366 573.586C577.983 573.104 577.162 573.553 577.313 574.163L578.017 577.004C578.101 577.341 577.862 577.7 577.507 577.77L574.518 578.366C573.876 578.494 573.798 579.395 574.418 579.523L577.303 580.119C577.644 580.189 577.82 580.548 577.678 580.885L576.476 583.726C576.217 584.336 576.96 584.787 577.427 584.304L579.608 582.057C579.866 581.79 580.282 581.79 580.492 582.057L582.28 584.304C582.663 584.787 583.483 584.336 583.333 583.726L582.629 580.885C582.544 580.548 582.783 580.189 583.138 580.119L586.127 579.523C586.767 579.395 586.847 578.492 586.227 578.366Z" fill="#263238"/>
<path d="M605.21 578.366L602.326 577.77C601.985 577.7 601.808 577.341 601.951 577.004L603.152 574.163C603.411 573.553 602.669 573.102 602.201 573.586L600.021 575.832C599.762 576.099 599.347 576.099 599.136 575.832L597.349 573.586C596.966 573.104 596.145 573.553 596.296 574.163L597 577.004C597.084 577.341 596.845 577.7 596.49 577.77L593.501 578.366C592.859 578.494 592.781 579.395 593.399 579.523L596.284 580.119C596.625 580.189 596.801 580.548 596.659 580.885L595.457 583.726C595.2 584.336 595.941 584.787 596.408 584.304L598.588 582.057C598.847 581.79 599.261 581.79 599.473 582.057L601.26 584.304C601.644 584.787 602.464 584.336 602.314 583.726L601.61 580.885C601.525 580.548 601.766 580.189 602.119 580.119L605.108 579.523C605.75 579.395 605.83 578.492 605.21 578.366Z" fill="#263238"/>
<path d="M624.193 578.366L621.308 577.77C620.967 577.7 620.791 577.341 620.933 577.004L622.135 574.163C622.392 573.553 621.651 573.102 621.184 573.586L619.003 575.832C618.745 576.099 618.332 576.099 618.119 575.832L616.331 573.586C615.948 573.104 615.128 573.553 615.278 574.163L615.982 577.004C616.067 577.341 615.826 577.7 615.473 577.77L612.484 578.366C611.842 578.494 611.764 579.395 612.382 579.523L615.266 580.119C615.607 580.189 615.784 580.548 615.641 580.885L614.44 583.726C614.181 584.336 614.923 584.787 615.391 584.304L617.571 582.057C617.83 581.79 618.245 581.79 618.456 582.057L620.243 584.304C620.626 584.787 621.447 584.336 621.296 583.726L620.592 580.885C620.508 580.548 620.747 580.189 621.102 580.119L624.091 579.523C624.733 579.395 624.813 578.492 624.193 578.366Z" fill="#263238"/>
<path d="M578.436 536.83H542.794C540.579 536.83 538.627 538.625 538.433 540.84C538.238 543.054 539.877 544.85 542.092 544.85H577.734C579.949 544.85 581.901 543.054 582.095 540.84C582.29 538.625 580.651 536.83 578.436 536.83Z" fill="#263238"/>
<path d="M614.619 536.83H593.937C591.722 536.83 589.77 538.625 589.576 540.84C589.381 543.054 591.02 544.85 593.235 544.85H613.917C616.131 544.85 618.083 543.054 618.278 540.84C618.472 538.625 616.833 536.83 614.619 536.83Z" fill="#263238"/>
<path opacity="0.2" d="M462.674 323.716C460.168 328.123 458.515 333.04 458.058 338.25L428.185 679.713H520.615L539.187 608.514L533.074 537.315L551.646 466.116L545.534 394.917L564.105 323.718H462.674V323.716Z" fill="black"/>
<path d="M537.51 374.857L556.079 303.656H322.332L303.761 374.857L309.875 446.056L291.303 517.255L297.416 588.456L278.844 659.655H512.591L531.163 588.456L525.05 517.255L543.62 446.056L537.51 374.857Z" fill="#AFB0B5"/>
<path opacity="0.7" d="M537.51 374.857L556.079 303.656H322.332L303.761 374.857L309.875 446.056L291.303 517.255L297.416 588.456L278.844 659.655H512.591L531.163 588.456L525.05 517.255L543.62 446.056L537.51 374.857Z" fill="white"/>
<path opacity="0.5" d="M537.508 374.857H303.76L322.332 303.656H556.079L537.508 374.857Z" fill="white"/>
<path opacity="0.5" d="M525.05 517.255H291.303L309.875 446.056H543.622L525.05 517.255Z" fill="white"/>
<path opacity="0.5" d="M512.591 659.655H278.844L297.416 588.456H531.163L512.591 659.655Z" fill="white"/>
<path opacity="0.2" d="M506.23 404.61C504.222 405.238 501.65 405.615 498.848 405.615C494.722 405.615 491.095 404.799 489.033 403.569C488.467 403.23 487.845 403.062 487.223 403.062C486.645 403.062 486.07 403.224 485.536 403.515C485.496 403.537 485.452 403.545 485.414 403.569C485.392 403.583 485.364 403.593 485.342 403.607C484.577 404.053 483.614 404.444 482.491 404.759C480.563 405.298 478.18 405.617 475.6 405.617C474.9 405.617 474.212 405.593 473.546 405.549C471.546 405.413 469.723 405.084 468.218 404.614C467.956 404.532 467.691 404.484 467.432 404.466C465.613 404.345 463.978 405.742 463.978 407.671V409.846H373.124C366.093 409.846 360.392 415.545 360.392 422.578V435.408C360.392 442.439 366.093 448.14 373.124 448.14H476.487C476.716 448.14 476.936 448.118 477.163 448.106C478.278 449.029 479.44 449.95 480.67 450.883C482.142 451.998 483.693 453.129 485.318 454.309C486.449 455.129 488.002 455.129 489.133 454.309C502.13 444.883 510.475 438.381 510.475 420.518V407.673C510.473 405.465 508.336 403.952 506.23 404.61Z" fill="black"/>
<path d="M474.511 441.069H371.148C364.117 441.069 358.416 435.37 358.416 428.337V415.507C358.416 408.476 364.115 402.775 371.148 402.775H474.511C481.542 402.775 487.243 408.474 487.243 415.507V428.337C487.243 435.368 481.542 441.069 474.511 441.069Z" fill="#004880"/>
<path d="M496.874 398.546C492.748 398.546 489.123 397.73 487.059 396.5C485.925 395.824 484.573 395.824 483.44 396.5C481.378 397.73 477.753 398.546 473.625 398.546C470.82 398.546 468.25 398.169 466.242 397.543C464.138 396.885 462 398.396 462 400.602V413.447C462 431.31 470.345 437.812 483.342 447.238C484.473 448.058 486.026 448.058 487.157 447.238C500.154 437.812 508.499 431.31 508.499 413.447V400.602C508.499 398.396 506.362 396.885 504.256 397.543C502.248 398.169 499.678 398.546 496.874 398.546Z" fill="#407BFF"/>
<path opacity="0.3" d="M496.874 398.546C492.748 398.546 489.123 397.73 487.059 396.5C485.925 395.824 484.573 395.824 483.44 396.5C481.378 397.73 477.753 398.546 473.625 398.546C470.82 398.546 468.25 398.169 466.242 397.543C464.138 396.885 462 398.396 462 400.602V413.447C462 431.31 470.345 437.812 483.342 447.238C484.473 448.058 486.026 448.058 487.157 447.238C500.154 437.812 508.499 431.31 508.499 413.447V400.602C508.499 398.396 506.362 396.885 504.256 397.543C502.248 398.169 499.678 398.546 496.874 398.546Z" fill="white"/>
<path opacity="0.2" d="M483.44 396.5C481.378 397.73 477.753 398.546 473.625 398.546C470.82 398.546 468.25 398.169 466.242 397.543C464.138 396.885 462 398.396 462 400.6V413.447C462 431.31 470.345 437.812 483.342 447.238C483.907 447.647 484.577 447.854 485.249 447.854V395.992C484.627 395.992 484.006 396.161 483.44 396.5Z" fill="white"/>
<path d="M503.879 409.94C495.48 413.415 488.292 418.484 483.576 424.249C480.286 421.643 475.775 419.834 470.483 419.005L469.863 418.909V421.974L470.216 422.103C475.538 424.048 480.032 427.503 483.215 432.086L483.715 432.807L484.13 432.034C488.734 423.465 495.911 416.285 504.338 411.82L504.625 411.667V409.631L503.879 409.94Z" fill="#263238"/>
<path d="M551.953 323.678H543.084C538.166 323.678 534.529 319.692 534.958 314.773L535.734 305.905C536.166 300.986 540.501 297 545.419 297H554.288C559.207 297 562.843 300.988 562.414 305.905L561.638 314.773C561.207 319.692 556.872 323.678 551.953 323.678Z" fill="#CA282F"/>
<path d="M555.638 305.887L553.714 303.777L548.87 308.23L544.805 303.777L542.511 305.887L546.575 310.34L541.732 314.794L543.658 316.904L548.5 312.451L552.565 316.904L554.859 314.794L550.795 310.34L555.638 305.887Z" fill="white"/>
<path d="M353.802 400.185C358.944 405.776 363.856 411.567 368.707 417.412C373.563 423.252 378.3 429.196 382.978 435.192C383.182 435.452 383.1 435.346 383.148 435.424C383.17 435.458 383.174 435.515 383.202 435.543C383.254 435.601 383.283 435.697 383.345 435.749C383.437 435.898 383.571 436.004 383.706 436.145C383.991 436.399 384.38 436.594 384.813 436.674C385.028 436.706 385.254 436.738 385.485 436.714C385.609 436.73 385.72 436.692 385.85 436.688C385.918 436.69 385.969 436.654 386.035 436.646C386.137 436.602 386.073 436.692 386.35 436.528L391.375 433.804C398.115 430.235 404.909 426.746 411.936 423.615L417.81 430.889C412.149 436.098 406.253 442.614 400.303 447.388L395.81 450.921C395.696 451.025 395.212 451.342 394.909 451.545C394.562 451.767 394.223 452.008 393.856 452.205C393.128 452.606 392.394 453.007 391.613 453.316C390.073 453.982 388.428 454.405 386.761 454.662C383.417 455.159 379.943 454.822 376.699 453.661C375.082 453.079 373.515 452.303 372.089 451.312C371.359 450.838 370.691 450.283 370.025 449.723C369.69 449.444 369.391 449.133 369.078 448.83L368.28 448.022C362.972 442.578 357.722 437.081 352.591 431.481C347.455 425.884 342.38 420.237 337.534 414.387L353.802 400.185Z" fill="#CF7D75"/>
<path d="M409.204 428.044L413.88 413.025L426.189 419.16C426.189 419.16 424.396 430.119 415.435 432.018L409.204 428.044Z" fill="#CF7D75"/>
<path d="M418.819 408.859L429.92 411.916L426.191 419.158L413.882 413.023L418.819 408.859Z" fill="#CF7D75"/>
<path d="M289.053 404.277C287.713 410.658 286.076 416.967 284.361 423.258C282.654 429.551 280.79 435.806 278.852 442.042L278.13 444.381L277.769 445.551C277.693 445.805 277.642 445.87 277.574 446.04C277.354 446.632 277.221 447.274 277.195 447.948C277.161 449.284 277.478 450.77 278.353 452.062C278.425 452.271 279.117 452.997 279.657 453.583L281.322 455.392L284.605 459.069C286.768 461.551 288.922 464.04 290.968 466.658L283.977 474.75C281.091 473.107 278.315 471.336 275.544 469.556L271.43 466.842L269.396 465.456C268.704 464.975 268.148 464.652 267.041 463.735C263.225 460.499 260.375 455.906 259.33 450.804C258.796 448.259 258.666 445.605 258.963 442.977C259.041 442.347 259.159 441.613 259.256 441.073L259.468 439.868L259.893 437.456C261.019 431.023 262.218 424.608 263.572 418.229C264.92 411.85 266.347 405.489 268.068 399.2L289.053 404.277Z" fill="#CF7D75"/>
<path d="M284.1 466.086L292.377 461.853L296.028 475.921C296.028 475.921 289.386 478.467 284.244 475.197L284.1 466.086Z" fill="#CF7D75"/>
<path d="M303.813 457.354L304.188 470.259L294.946 476.303L291.741 462.126L303.813 457.354Z" fill="#CF7D75"/>
<path d="M330.874 337.949C331.076 338.944 331.766 339.642 332.416 339.509C333.066 339.377 333.429 338.464 333.227 337.469C333.024 336.474 332.334 335.776 331.684 335.909C331.036 336.041 330.673 336.954 330.874 337.949Z" fill="#263238"/>
<path d="M331.676 339.66C331.676 339.66 335.102 344.936 338.153 347.196C336.727 349.196 333.586 349.054 333.586 349.054L331.676 339.66Z" fill="#CF7D75"/>
<path d="M326.111 333.167C325.967 333.167 325.821 333.114 325.706 333.008C325.465 332.785 325.449 332.408 325.674 332.166C327.911 329.744 330.625 330.176 330.743 330.194C331.068 330.25 331.285 330.557 331.231 330.882C331.175 331.205 330.864 331.421 330.547 331.369C330.456 331.355 328.334 331.044 326.551 332.974C326.432 333.102 326.272 333.167 326.111 333.167Z" fill="#263238"/>
<path d="M301.945 351.933C304.158 361.134 306.366 377.995 298.469 384.133C298.469 384.133 301.554 393.467 322.531 393.467C345.596 393.467 333.554 387.455 333.554 387.455C320.966 385.006 321.289 374.071 323.482 366.921L301.945 351.933Z" fill="#CF7D75"/>
<path d="M296.011 385.84C294.637 383.282 293.123 380.358 296.254 379.441C299.698 378.432 321.827 376.562 328.326 378.456C326.328 382.009 329.71 386.376 329.71 386.376L296.011 385.84Z" fill="#263238"/>
<path d="M314.332 816.28H328.806L330.246 787.15H315.775L314.332 816.28Z" fill="#CF7D75"/>
<path d="M222.491 812.268L237.149 813.042L246.058 784.346L231.398 783.57L222.491 812.268Z" fill="#CF7D75"/>
<path d="M236.702 811.882L222.891 808.891C222.389 808.783 221.878 809.038 221.663 809.505L216.869 819.906C216.371 820.986 217.029 822.251 218.195 822.482C223.033 823.443 225.438 823.668 231.51 824.982C235.248 825.79 243.681 827.846 248.842 828.964C253.889 830.057 255.781 825.124 253.769 824.205C244.746 820.083 240.977 816.452 238.534 813.07C238.094 812.462 237.438 812.043 236.702 811.882Z" fill="#263238"/>
<path d="M328.039 814.823H314.304C313.791 814.823 313.345 815.18 313.233 815.682L310.747 826.861C310.491 828.021 311.369 829.118 312.557 829.098C317.512 829.014 324.671 828.723 330.9 828.723C338.182 828.723 344.47 829.12 353.01 829.12C358.173 829.12 359.606 823.9 357.445 823.427C347.606 821.274 339.572 821.044 331.068 815.802C330.145 815.232 329.124 814.823 328.039 814.823Z" fill="#263238"/>
<path d="M272.264 388.386C261.342 393.579 258.373 425.063 258.373 425.063L285.394 437.549C285.394 437.549 292.1 427.669 292.613 412.135C293.151 395.86 283.432 383.076 272.264 388.386Z" fill="#263238"/>
<path opacity="0.4" d="M286.922 407.802C282.044 415.374 282.505 427.091 284.194 436.993L285.388 437.553C285.388 437.553 292.102 427.661 292.617 412.131C292.647 411.16 292.643 410.195 292.609 409.256L286.922 407.802Z" fill="black"/>
<path d="M347.666 387.625C347.666 387.625 361.054 402.747 348.41 496.341C328.14 496.341 290.999 496.341 281.135 496.341C280.672 486.014 287.161 435.637 277.199 386.977C277.199 386.977 288.732 384.663 299.721 384.133C308.316 383.72 320.762 383.445 328.318 384.133C338.282 385.044 347.666 387.625 347.666 387.625Z" fill="#FF0000"/>
<path opacity="0.6" d="M347.666 387.625C347.666 387.625 361.054 402.747 348.41 496.341C328.14 496.341 290.999 496.341 281.135 496.341C280.672 486.014 287.161 435.637 277.199 386.977C277.199 386.977 288.732 384.663 299.721 384.133C308.316 383.72 320.762 383.445 328.318 384.133C338.282 385.044 347.666 387.625 347.666 387.625Z" fill="#FAFAFA"/>
<path opacity="0.2" d="M353.546 416.231L353.289 416.008L339.909 408.859C338.549 429.461 347.758 442.375 353.237 448.024C353.991 434.825 353.973 424.413 353.546 416.231Z" fill="black"/>
<path opacity="0.2" d="M330.244 787.158L329.504 802.173H315.024L315.765 787.158H330.244Z" fill="black"/>
<path opacity="0.2" d="M231.394 783.578L246.058 784.354L241.458 799.144L226.794 798.37L231.394 783.578Z" fill="black"/>
<path d="M297.287 342.581C300.519 354.639 301.797 361.86 309.239 366.873C320.43 374.414 334.366 365.76 334.801 352.98C335.195 341.477 329.843 323.692 316.904 321.261C304.156 318.868 294.056 330.523 297.287 342.581Z" fill="#CF7D75"/>
<path d="M324.545 496.341C324.545 496.341 310.27 592.462 302.435 628.474C293.853 667.908 247.839 798.378 247.839 798.378L225.324 793.503C225.324 793.503 254.178 687.179 261.38 632.049C264.19 610.534 267.582 575.854 271.875 546.94C276.032 518.938 281.135 496.341 281.135 496.341H324.545Z" fill="#263238"/>
<path d="M253.229 790.859C253.326 790.88 249.033 799.002 249.033 799.002L223.701 793.517L225.838 785.903L253.229 790.859Z" fill="#407BFF"/>
<path opacity="0.6" d="M253.229 790.859C253.326 790.88 249.033 799.002 249.033 799.002L223.701 793.517L225.838 785.903L253.229 790.859Z" fill="white"/>
<path opacity="0.6" d="M315.524 530.587C299.019 533.823 300.766 595.373 302.752 627.031C307.512 604.655 314.479 561.594 319.239 531.032C318.144 530.485 316.91 530.314 315.524 530.587Z" fill="black"/>
<path d="M348.41 496.341C348.41 496.341 355.124 590.382 353.756 628.739C352.334 668.634 333.417 799.267 333.417 799.267H312.11C312.11 799.267 311.327 670.965 310.38 631.784C309.347 589.068 304.19 496.341 304.19 496.341H348.41Z" fill="#263238"/>
<path d="M337.516 790.779C337.614 790.779 336.314 799.626 336.314 799.626H310.394L309.694 791.73L337.516 790.779Z" fill="#407BFF"/>
<path opacity="0.6" d="M337.516 790.779C337.614 790.779 336.314 799.626 336.314 799.626H310.394L309.694 791.73L337.516 790.779Z" fill="white"/>
<path d="M339.814 405.242C339.814 430.48 353.245 440.871 353.245 440.871L375.074 419.531C375.074 419.531 367.652 406.743 357.445 395.003C344.833 380.5 339.814 389.014 339.814 405.242Z" fill="#263238"/>
<path opacity="0.2" d="M334.037 357.547C333.483 359.094 332.029 361.716 328.376 362.761C323.048 364.286 322.978 368.801 322.978 368.801L323.044 368.885C328.127 367.206 332.36 363.006 334.037 357.547Z" fill="black"/>
<path d="M328.378 318.615C332.876 312.944 325.957 312.673 325.957 312.673C327.754 305.903 319.662 309.548 319.662 309.548C314.804 302.852 312.064 311 312.064 311C307.024 305.327 306.098 314.599 306.098 314.599C301.045 307.403 298.471 317.782 298.471 317.782C293.817 310.31 290.968 320.045 290.968 320.045C281.36 316.605 285.927 326.591 285.927 326.591C277.725 326.822 284.304 333.167 284.304 333.167C274.479 333.191 283.143 338.817 283.143 338.817C275.34 343.937 285.135 345.315 285.135 345.315C278.768 355.271 289.701 351.578 289.701 351.578C285.271 361.431 295.093 357.09 295.093 357.09C294.455 366.599 299.947 364.011 302.587 362.249C303.097 364.165 304.048 366.193 305.813 366.424C309.239 366.871 309.905 360.404 309.905 360.404C309.905 360.404 313.085 362.877 315.751 361.537C318.416 360.197 317.411 356.805 317.411 356.805C317.411 356.805 319.452 358.328 321.321 356.875C322.465 355.987 322.471 349.602 321.012 347.357L326.234 345.313C326.234 345.313 330.109 344.767 328.378 339.658C326.649 334.551 328.116 330.517 328.116 330.517C334.009 327.754 329.175 324.432 329.175 324.432C335.989 320.017 328.378 318.615 328.378 318.615Z" fill="#263238"/>
<path d="M317.801 343.086C318.621 346.252 320.701 348.972 322.876 350.591C326.15 353.026 328.593 350.629 328.36 346.926C328.152 343.592 326.196 338.308 322.585 337.319C319.03 336.344 316.864 339.467 317.801 343.086Z" fill="#CF7D75"/>
</svg>
